<mxfile host="app.diagrams.net" modified="2025-04-07T15:40:48.049Z" agent="Mozilla/5.0 (Windows NT 10.0; Win64; x64) AppleWebKit/537.36 (KHTML, like Gecko) Chrome/134.0.0.0 Safari/537.36" etag="pqgyLYzdB6SkiNHoA1Ud" version="24.4.13" type="device">
  <diagram name="PÃ¡gina-1" id="P5RU-XgTIudVhZ_Ea6Sd">
    <mxGraphModel dx="1050" dy="522" grid="1" gridSize="10" guides="1" tooltips="1" connect="1" arrows="1" fold="1" page="1" pageScale="1" pageWidth="827" pageHeight="1169" math="0" shadow="0">
      <root>
        <mxCell id="0" />
        <mxCell id="1" parent="0" />
        <mxCell id="Tq7mYedtV8fznHgPaCb0-27" value="" style="sketch=0;outlineConnect=0;fontColor=#232F3E;gradientColor=none;fillColor=#7AA116;strokeColor=none;dashed=0;verticalLabelPosition=bottom;verticalAlign=top;align=center;html=1;fontSize=12;fontStyle=0;aspect=fixed;pointerEvents=1;shape=mxgraph.aws4.bucket;" vertex="1" parent="1">
          <mxGeometry x="155" y="260" width="75" height="78" as="geometry" />
        </mxCell>
        <mxCell id="Tq7mYedtV8fznHgPaCb0-28" value="&lt;b&gt;Bucket:&lt;/b&gt;&amp;nbsp;pruebatecnicajosemqe" style="text;html=1;align=center;verticalAlign=middle;whiteSpace=wrap;rounded=0;" vertex="1" parent="1">
          <mxGeometry x="162.5" y="330" width="60" height="48" as="geometry" />
        </mxCell>
        <mxCell id="Tq7mYedtV8fznHgPaCb0-32" style="edgeStyle=orthogonalEdgeStyle;rounded=0;orthogonalLoop=1;jettySize=auto;html=1;" edge="1" parent="1" source="Tq7mYedtV8fznHgPaCb0-30">
          <mxGeometry relative="1" as="geometry">
            <mxPoint x="240" y="309" as="targetPoint" />
          </mxGeometry>
        </mxCell>
        <mxCell id="Tq7mYedtV8fznHgPaCb0-87" style="edgeStyle=orthogonalEdgeStyle;rounded=0;orthogonalLoop=1;jettySize=auto;html=1;entryX=0;entryY=1;entryDx=0;entryDy=0;" edge="1" parent="1" source="Tq7mYedtV8fznHgPaCb0-30" target="Tq7mYedtV8fznHgPaCb0-81">
          <mxGeometry relative="1" as="geometry" />
        </mxCell>
        <mxCell id="Tq7mYedtV8fznHgPaCb0-30" value="" style="sketch=0;outlineConnect=0;fontColor=#232F3E;gradientColor=none;fillColor=#8C4FFF;strokeColor=none;dashed=0;verticalLabelPosition=bottom;verticalAlign=top;align=center;html=1;fontSize=12;fontStyle=0;aspect=fixed;pointerEvents=1;shape=mxgraph.aws4.glue_crawlers;" vertex="1" parent="1">
          <mxGeometry x="336" y="270" width="78" height="78" as="geometry" />
        </mxCell>
        <mxCell id="Tq7mYedtV8fznHgPaCb0-31" value="&lt;b&gt;Crawler: &lt;/b&gt;crawlerprueba" style="text;html=1;align=center;verticalAlign=middle;whiteSpace=wrap;rounded=0;" vertex="1" parent="1">
          <mxGeometry x="414" y="300" width="146" height="30" as="geometry" />
        </mxCell>
        <mxCell id="Tq7mYedtV8fznHgPaCb0-33" value="1. Descubrir" style="text;html=1;align=center;verticalAlign=middle;whiteSpace=wrap;rounded=0;" vertex="1" parent="1">
          <mxGeometry x="250" y="280" width="70" height="30" as="geometry" />
        </mxCell>
        <mxCell id="Tq7mYedtV8fznHgPaCb0-85" value="" style="group" vertex="1" connectable="0" parent="1">
          <mxGeometry x="20" y="130" width="378.5" height="96" as="geometry" />
        </mxCell>
        <mxCell id="Tq7mYedtV8fznHgPaCb0-71" value="" style="rounded=0;whiteSpace=wrap;html=1;" vertex="1" parent="Tq7mYedtV8fznHgPaCb0-85">
          <mxGeometry y="6" width="378.5" height="90" as="geometry" />
        </mxCell>
        <mxCell id="Tq7mYedtV8fznHgPaCb0-72" value="" style="shape=image;verticalLabelPosition=bottom;labelBackgroundColor=default;verticalAlign=top;aspect=fixed;imageAspect=0;image=data:image/png,iVBORw0KGgoAAAANSUhEUgAAAIQAAABuCAYAAADmm7tDAAAAAXNSR0IArs4c6QAAAARnQU1BAACxjwv8YQUAAAAJcEhZcwAAEnQAABJ0Ad5mH3gAAA0cSURBVHhe7Z1pjBTHGYa/uY+9d7mWcIMPbGPjgBF2jL1xcMBWEmKFiFi2rAjzi0hR8ssRUqQcih2koESKYvmHgyIRK7Ii/0hkKXZsBzuCmCCEE8dxjLkNLHuwxyzLzj2T7+vphu6Zqq7uparFDvX0vjN07/S+NdXvVFdXdw+hKgIajUnYfNZoDHQgNA50IDQOdCA0DnQgNA50IDQOhIed9MtKpWo8a2Ym4VAIZc4IcA1ErlSF8WwZPhrMQbZYMZdqZhIRTMKK7jjM74hBOhYWBoMbiGK5CrveHIQXD43BlA7DjCYWCcH6hSl4ZdsCWNgZM5eyYfYhcA8BL/1zFH55cESHoQmgD/c/PsvCtj+cw1bffXtyAlGFvUfGjWBomoMybsyPBvPw0UDeXMKGGQjaifz7Ys541jQPJQzFx0PTCYQpTXNBH3BRF0CPQ2gc6EBoHOhAaBzoQGgc6EBoHOhAaBzoQGgc6EBoHOhAaBzoQGgc6EBoHOhAaBzoQGgc6EBoHOhAaBzoQGgc6EBoHOhAaBzoQGgcMO/LoMu2l+w+bs5pmoVENAQ/+tJseGZNp7mkEWYg6NL9p343Ys5pmgW6YeeZdWn48sqkuaQR7i4jDCGtJlOEngW38nEDYV2Kr9U8ogvwRffa8AOBK2o1m8R38bu0EHpqvkkMNxB0X6dWcwl/hOgW4maarmuXQYnSai7VtqzxyIM7DvHN314y57wTwkMaPNTFZ4/fX+MD+oqCsvt9qleJYsyTMTzM8vo9Ol7BmiqUq1AoYVnc69WA7NNxBeVAaPAwV6wauwKvxHHjbL8/DZtWpswljXADsdVnIFK4Ae7sjcGSbjzalb0dsIQTuSp82F+AgQn3VCSiAA8sTcCG5XFoTXAbwGlB5ejPlGH/8Tx8PFA06okHZeDhFQksSxw6klgOyXUyPFmB907k4INzRfD6nS7xCMD29S2w+Y5pBOIbLw+bc96gMOzc0GoEQwXUOhwbLMKe/ZeNDcPjc50ReG5jO4ZBTTmIc+Nl2PPOhBFSHrNbw/D8VzuxdTAXKGB0qgI/fWMCMllviaCRymfvb4HHXAIhpQ9BUAWoCgNBFbukJwpRtGCVwdJSbKFol6GSjmQI2vFTz/InEYu7o56/+W26dKTCxqeeVQaWhD1KhB8IH5MnJ1lQIFwmo2lWvCFq2F0bp1BIfZ1Qf42w+4omEdxA1B/DimQkMABY3nbhTyCwvO0Kqj7IhuXPk6hcLi2EPwUFy9uu2oN66n3tIqxn1dR7iySCHwiMki95srs+jDfF8rar9lLloFWjtyk6RMafQGD5c+VhK0lrIUhBwPKtVxBYlctTULC8ucIHenZDWh8iKOhNsfwt0e+DguVPsiqepBpRfThkrGCsxoUTCKt58TtdqwgVIuxurMl6pX09dXKZzGQ2riNbPiYsE01uuPQhvMt6vWrIwpDp6yaV0J+v7Zedng6Zr1ON4WN5CuQFKX0IGtcvlvHfNKMQ+npe+jZWu3e9LmRKxmtUQucQMjl+Ocj+4gRWiGLGsxWjLPX+PHmpFpdAeJ+oV33iUhEroeTJ1C8UtKlCFd46ljVOLrlNZ8dK8MlgEUaulGEiV5GuAdzQB0/lYCJfsbk6J/rNmdEi/Ot8Xlk5hi6XjaH8yQK/HKypFg0+nHMZVXj0xQFzzhs0tExD13QiJ07jyxKhEtKnIYufhnxJ8IbQOhEJGeP2Ck66GoGns50UTBF0xtUohzkvE6McWAY66+m1Zabt8p0H2+Brd7WYSxrhBmLjb/wF4ir47lVUgNc3reETjwIGoh22rOIHgrvLoIZoWsItV1YgppeWL3n5TEk5ytCaGaLdDP64Ir+F0LphxegdNMDtQzz0635zzht07j+JnZY5bRHpVyoRRezIDWDPmnrYorfVEx+GNV0HYVHLSemnoSeKnXB45CHozy6CfIV/Sxz1o1qjGVjbfQCWt34ivRz5chIOjfTBmSu3QKGSMJe6Q/d2fvehdnhiVau5pBFuIDb4DEQKzZ5e2wpfWJqEqHWiXhZYQmruaIzhZ2+N4aEWv3LjoTz8/J4dsLrrMCTDWdwQ3q4m8gpV/lCuF77/wT44n11qLm0khIXeueJ5eGLB7yEdnTTmZVKqxGC82A07j/wRy7EE/7r4Q0jXVH6PAnE3PxAufYhaE+NVHakQrF+chO50BNqxhZAqPJTtTIVh+awYLOuJMv0tpSKTsDB9Gp+vSA8DEQ/noSt+CQP3PtP/miqwufc1JWEgouEizEoMwhfnvg6RUIHhz5AxucMPhE/RMS4dc6uEdksdqQjT31I4VFISBDtR9GiLTjD97eqKjygJg515yfMYiHKDN1P4QM9u8DuVuKZfBQG9KZa3JfFnQA6icpCCgg71Wf4NohfjsxvSdhn4E8imQCeGt13mCxWDTgxvm3AKAsOJ6r7enyMR/BbCp9DO9qhWLH+7jBcpRlQOD3UvDZY/S1b9uSG1hahh2SpQgydH+GrlGMVheFsKphToJShHvcz1eDADQStNR0HA8q1XELB86xUULG+eRLBbCFyT2SlxEYbPk+H1Qj4sf0v0+yAgG5a/XUFg1Hudr5tE9SNvlxFIHGhD2DxZCqgcRklY/jYFhTUs7UVUbjckdirVY70dlr+lcjWEz2rHQ+jv58oJhy9L2TL/HkpZjBR68D2Hmf4sibaTtBZibKoMmSxdR0crqxFdQnd8uMj0t5QpdMB4oQtXUEe2nIajY2uZ/tcE8PbAJtxYEXMt+RQrMXi9fwuGM87wZ0sE81wGXYVz956z5pw36Iqp22bH4cl726BFwU2/dM3m/pNT8NdPp4x9IZ8qdMbHoW/OO/DI3LeNUUWZnJpcAa+d2wrnsouN8wlupCOT0Df3b/B47+sQljx6ernUBvtOfxuOXb7DCIYX6OTWDx7pgm+tbjeXNMINxKpf+AsEEcZQxMLi70KcDlRK+poCbxfQViEaLhlhkD10TJ/4UjWGoeQ2rg7onIOKclSwcacgVHy0QFYgnrx3GoG4cxqB0NzYUCB2CQIhrQ+hNUNkbl8e/EBoNaVqD3y4gaidQdNqNgnywO9D3Lr7tDnnDerEzUpcwl71u7Cy/RNzqTxG8t3w5sVNcPzyLfjG3Dp0WPb247Bx3jswNzloLpMHjT8cGH4QjoyugWwpbS5lgB3r3mQ/PD7/L7Co5TwuEG0Kf1AdHB65D94d6sNyeBvvoD7EDzf2wFOfn0ancoXPQHTGxuGldTvhns7/QDo6ZS6VAxWQetTDuTmw7eArcG5qYe0XDFKRLOxdvwPWdB+FeLggfYiqVI3CUG42bD/0Mvxv4nZzaSNhLPULq3fB1xf8GRKRvPSjjCr+xYlCO2w98CqcnFxuDE6JoGteKRBPuwTCpQ/hb5qVGIZlrWekh4GgjRrHw7fuxCjcjq2P3bd+SkWmYH7qIiQUhIGgQ8iOWAbW9hy2ubKmCjw2/w0lYSDob3bEM7BlwZ9ql9B5nEQtFT8QuJ4fRbCiSCqhSkhiC8Dyt0SX0NUGctURCVUgGc4z/e1qjV5REgY7XfFRfL9lpn+9rvPklj95Gi+6bsjM6ctSELB87VIbSRvkR082bzeJ4AbCfoOHF1kNkmrIheVv6YYph5falwC5GEcQdf48iUolrYUgBQHZsLztCgqW91WZrwkC8mKWgSER0jqVHrykYHdkT8FAPnZX1hQEXsrhnNzh7zJwTT/Cn0CglLP87QoCsmF52xUUXuqEZLQS5jo85O4ySIoxbGyejcKHAGj0bVQQsHzdJNpGUjuVQUBviuV/TcL3LIHa+2X7X1MQNeKlHHaJSiWthShXaGxOxVDQNejvlyoRpr8lKkcZX6MSuiZiotjG9LfrwtQ85XXyceZWKJbpfld2GeolyIO8TuVQvhsuZueaa6uhVInC0bG7bK6N02ihAz4cX2m8VhX92Xmwf/ABm2vjRPvsfae2Kr2Ebhjr/I2LfZCrxGzObpMwD/xzGbN+8qk55w0aveuMZeDR3r9D39z3pV4yRidyTk4uglfPboHzU/Nxnv+pqw1zF2BeaggWpPuxHKIq8MdkMQ3HLy8zLqB1O39A5aCrpeYlh2BxywXp3w9RKMfgv5nbhOWwQ+cyXtg8B7bf5/P//p5OIAgapqU7kUmyoUvG6FPvtQmmstSGjeVuiNpf9bYBCFXloL9MdeIHOttJgXh2OoHo/vExc07TLFgtxI51/KvSXfoQWs0oEdxA1A9qaDWHRPBbCNyTaDWZjMkdvcu4mUQPAlx2GXQsrdVMIrpS7uMizEDQl4avnFP77kNHwrRmtKKYBbrd0g1mIMKYiOce7jGOWylYWjNfdIvlI8tb4NZZ7l9yyhyHIGgsYvd7l2DvkTHI5CtQ8dJF1dxw0H/MT+MP6xel4Fdf6YVFne43BnMDQdB+57PxIpwYKcDwlRJGzfyFZsZA3167qjcJvW0xaEtwu4xXcQ2E5uZDHBnNTYUOhMaBDoTGgQ6ExgbA/wEuu/TnoLueOAAAAABJRU5ErkJggg==;" vertex="1" parent="Tq7mYedtV8fznHgPaCb0-85">
          <mxGeometry x="18.5" y="26" width="60" height="50" as="geometry" />
        </mxCell>
        <mxCell id="Tq7mYedtV8fznHgPaCb0-73" value="" style="shape=image;verticalLabelPosition=bottom;labelBackgroundColor=default;verticalAlign=top;aspect=fixed;imageAspect=0;image=data:image/png,iVBORw0KGgoAAAANSUhEUgAAAIQAAABuCAYAAADmm7tDAAAAAXNSR0IArs4c6QAAAARnQU1BAACxjwv8YQUAAAAJcEhZcwAAEnQAABJ0Ad5mH3gAAA0cSURBVHhe7Z1pjBTHGYa/uY+9d7mWcIMPbGPjgBF2jL1xcMBWEmKFiFi2rAjzi0hR8ssRUqQcih2koESKYvmHgyIRK7Ii/0hkKXZsBzuCmCCEE8dxjLkNLHuwxyzLzj2T7+vphu6Zqq7uparFDvX0vjN07/S+NdXvVFdXdw+hKgIajUnYfNZoDHQgNA50IDQOdCA0DnQgNA50IDQOhIed9MtKpWo8a2Ym4VAIZc4IcA1ErlSF8WwZPhrMQbZYMZdqZhIRTMKK7jjM74hBOhYWBoMbiGK5CrveHIQXD43BlA7DjCYWCcH6hSl4ZdsCWNgZM5eyYfYhcA8BL/1zFH55cESHoQmgD/c/PsvCtj+cw1bffXtyAlGFvUfGjWBomoMybsyPBvPw0UDeXMKGGQjaifz7Ys541jQPJQzFx0PTCYQpTXNBH3BRF0CPQ2gc6EBoHOhAaBzoQGgc6EBoHOhAaBzoQGgc6EBoHOhAaBzoQGgc6EBoHOhAaBzoQGgc6EBoHOhAaBzoQGgc6EBoHOhAaBzoQGgcMO/LoMu2l+w+bs5pmoVENAQ/+tJseGZNp7mkEWYg6NL9p343Ys5pmgW6YeeZdWn48sqkuaQR7i4jDCGtJlOEngW38nEDYV2Kr9U8ogvwRffa8AOBK2o1m8R38bu0EHpqvkkMNxB0X6dWcwl/hOgW4maarmuXQYnSai7VtqzxyIM7DvHN314y57wTwkMaPNTFZ4/fX+MD+oqCsvt9qleJYsyTMTzM8vo9Ol7BmiqUq1AoYVnc69WA7NNxBeVAaPAwV6wauwKvxHHjbL8/DZtWpswljXADsdVnIFK4Ae7sjcGSbjzalb0dsIQTuSp82F+AgQn3VCSiAA8sTcCG5XFoTXAbwGlB5ejPlGH/8Tx8PFA06okHZeDhFQksSxw6klgOyXUyPFmB907k4INzRfD6nS7xCMD29S2w+Y5pBOIbLw+bc96gMOzc0GoEQwXUOhwbLMKe/ZeNDcPjc50ReG5jO4ZBTTmIc+Nl2PPOhBFSHrNbw/D8VzuxdTAXKGB0qgI/fWMCMllviaCRymfvb4HHXAIhpQ9BUAWoCgNBFbukJwpRtGCVwdJSbKFol6GSjmQI2vFTz/InEYu7o56/+W26dKTCxqeeVQaWhD1KhB8IH5MnJ1lQIFwmo2lWvCFq2F0bp1BIfZ1Qf42w+4omEdxA1B/DimQkMABY3nbhTyCwvO0Kqj7IhuXPk6hcLi2EPwUFy9uu2oN66n3tIqxn1dR7iySCHwiMki95srs+jDfF8rar9lLloFWjtyk6RMafQGD5c+VhK0lrIUhBwPKtVxBYlctTULC8ucIHenZDWh8iKOhNsfwt0e+DguVPsiqepBpRfThkrGCsxoUTCKt58TtdqwgVIuxurMl6pX09dXKZzGQ2riNbPiYsE01uuPQhvMt6vWrIwpDp6yaV0J+v7Zedng6Zr1ON4WN5CuQFKX0IGtcvlvHfNKMQ+npe+jZWu3e9LmRKxmtUQucQMjl+Ocj+4gRWiGLGsxWjLPX+PHmpFpdAeJ+oV33iUhEroeTJ1C8UtKlCFd46ljVOLrlNZ8dK8MlgEUaulGEiV5GuAdzQB0/lYCJfsbk6J/rNmdEi/Ot8Xlk5hi6XjaH8yQK/HKypFg0+nHMZVXj0xQFzzhs0tExD13QiJ07jyxKhEtKnIYufhnxJ8IbQOhEJGeP2Ck66GoGns50UTBF0xtUohzkvE6McWAY66+m1Zabt8p0H2+Brd7WYSxrhBmLjb/wF4ir47lVUgNc3reETjwIGoh22rOIHgrvLoIZoWsItV1YgppeWL3n5TEk5ytCaGaLdDP64Ir+F0LphxegdNMDtQzz0635zzht07j+JnZY5bRHpVyoRRezIDWDPmnrYorfVEx+GNV0HYVHLSemnoSeKnXB45CHozy6CfIV/Sxz1o1qjGVjbfQCWt34ivRz5chIOjfTBmSu3QKGSMJe6Q/d2fvehdnhiVau5pBFuIDb4DEQKzZ5e2wpfWJqEqHWiXhZYQmruaIzhZ2+N4aEWv3LjoTz8/J4dsLrrMCTDWdwQ3q4m8gpV/lCuF77/wT44n11qLm0khIXeueJ5eGLB7yEdnTTmZVKqxGC82A07j/wRy7EE/7r4Q0jXVH6PAnE3PxAufYhaE+NVHakQrF+chO50BNqxhZAqPJTtTIVh+awYLOuJMv0tpSKTsDB9Gp+vSA8DEQ/noSt+CQP3PtP/miqwufc1JWEgouEizEoMwhfnvg6RUIHhz5AxucMPhE/RMS4dc6uEdksdqQjT31I4VFISBDtR9GiLTjD97eqKjygJg515yfMYiHKDN1P4QM9u8DuVuKZfBQG9KZa3JfFnQA6icpCCgg71Wf4NohfjsxvSdhn4E8imQCeGt13mCxWDTgxvm3AKAsOJ6r7enyMR/BbCp9DO9qhWLH+7jBcpRlQOD3UvDZY/S1b9uSG1hahh2SpQgydH+GrlGMVheFsKphToJShHvcz1eDADQStNR0HA8q1XELB86xUULG+eRLBbCFyT2SlxEYbPk+H1Qj4sf0v0+yAgG5a/XUFg1Hudr5tE9SNvlxFIHGhD2DxZCqgcRklY/jYFhTUs7UVUbjckdirVY70dlr+lcjWEz2rHQ+jv58oJhy9L2TL/HkpZjBR68D2Hmf4sibaTtBZibKoMmSxdR0crqxFdQnd8uMj0t5QpdMB4oQtXUEe2nIajY2uZ/tcE8PbAJtxYEXMt+RQrMXi9fwuGM87wZ0sE81wGXYVz956z5pw36Iqp22bH4cl726BFwU2/dM3m/pNT8NdPp4x9IZ8qdMbHoW/OO/DI3LeNUUWZnJpcAa+d2wrnsouN8wlupCOT0Df3b/B47+sQljx6ernUBvtOfxuOXb7DCIYX6OTWDx7pgm+tbjeXNMINxKpf+AsEEcZQxMLi70KcDlRK+poCbxfQViEaLhlhkD10TJ/4UjWGoeQ2rg7onIOKclSwcacgVHy0QFYgnrx3GoG4cxqB0NzYUCB2CQIhrQ+hNUNkbl8e/EBoNaVqD3y4gaidQdNqNgnywO9D3Lr7tDnnDerEzUpcwl71u7Cy/RNzqTxG8t3w5sVNcPzyLfjG3Dp0WPb247Bx3jswNzloLpMHjT8cGH4QjoyugWwpbS5lgB3r3mQ/PD7/L7Co5TwuEG0Kf1AdHB65D94d6sNyeBvvoD7EDzf2wFOfn0ancoXPQHTGxuGldTvhns7/QDo6ZS6VAxWQetTDuTmw7eArcG5qYe0XDFKRLOxdvwPWdB+FeLggfYiqVI3CUG42bD/0Mvxv4nZzaSNhLPULq3fB1xf8GRKRvPSjjCr+xYlCO2w98CqcnFxuDE6JoGteKRBPuwTCpQ/hb5qVGIZlrWekh4GgjRrHw7fuxCjcjq2P3bd+SkWmYH7qIiQUhIGgQ8iOWAbW9hy2ubKmCjw2/w0lYSDob3bEM7BlwZ9ql9B5nEQtFT8QuJ4fRbCiSCqhSkhiC8Dyt0SX0NUGctURCVUgGc4z/e1qjV5REgY7XfFRfL9lpn+9rvPklj95Gi+6bsjM6ctSELB87VIbSRvkR082bzeJ4AbCfoOHF1kNkmrIheVv6YYph5falwC5GEcQdf48iUolrYUgBQHZsLztCgqW91WZrwkC8mKWgSER0jqVHrykYHdkT8FAPnZX1hQEXsrhnNzh7zJwTT/Cn0CglLP87QoCsmF52xUUXuqEZLQS5jo85O4ySIoxbGyejcKHAGj0bVQQsHzdJNpGUjuVQUBviuV/TcL3LIHa+2X7X1MQNeKlHHaJSiWthShXaGxOxVDQNejvlyoRpr8lKkcZX6MSuiZiotjG9LfrwtQ85XXyceZWKJbpfld2GeolyIO8TuVQvhsuZueaa6uhVInC0bG7bK6N02ihAz4cX2m8VhX92Xmwf/ABm2vjRPvsfae2Kr2Ebhjr/I2LfZCrxGzObpMwD/xzGbN+8qk55w0aveuMZeDR3r9D39z3pV4yRidyTk4uglfPboHzU/Nxnv+pqw1zF2BeaggWpPuxHKIq8MdkMQ3HLy8zLqB1O39A5aCrpeYlh2BxywXp3w9RKMfgv5nbhOWwQ+cyXtg8B7bf5/P//p5OIAgapqU7kUmyoUvG6FPvtQmmstSGjeVuiNpf9bYBCFXloL9MdeIHOttJgXh2OoHo/vExc07TLFgtxI51/KvSXfoQWs0oEdxA1A9qaDWHRPBbCNyTaDWZjMkdvcu4mUQPAlx2GXQsrdVMIrpS7uMizEDQl4avnFP77kNHwrRmtKKYBbrd0g1mIMKYiOce7jGOWylYWjNfdIvlI8tb4NZZ7l9yyhyHIGgsYvd7l2DvkTHI5CtQ8dJF1dxw0H/MT+MP6xel4Fdf6YVFne43BnMDQdB+57PxIpwYKcDwlRJGzfyFZsZA3167qjcJvW0xaEtwu4xXcQ2E5uZDHBnNTYUOhMaBDoTGgQ6ExgbA/wEuu/TnoLueOAAAAABJRU5ErkJggg==;" vertex="1" parent="Tq7mYedtV8fznHgPaCb0-85">
          <mxGeometry x="88.5" y="26" width="60" height="50" as="geometry" />
        </mxCell>
        <mxCell id="Tq7mYedtV8fznHgPaCb0-74" value="" style="shape=image;verticalLabelPosition=bottom;labelBackgroundColor=default;verticalAlign=top;aspect=fixed;imageAspect=0;image=data:image/png,iVBORw0KGgoAAAANSUhEUgAAAIQAAABuCAYAAADmm7tDAAAAAXNSR0IArs4c6QAAAARnQU1BAACxjwv8YQUAAAAJcEhZcwAAEnQAABJ0Ad5mH3gAAA0cSURBVHhe7Z1pjBTHGYa/uY+9d7mWcIMPbGPjgBF2jL1xcMBWEmKFiFi2rAjzi0hR8ssRUqQcih2koESKYvmHgyIRK7Ii/0hkKXZsBzuCmCCEE8dxjLkNLHuwxyzLzj2T7+vphu6Zqq7uparFDvX0vjN07/S+NdXvVFdXdw+hKgIajUnYfNZoDHQgNA50IDQOdCA0DnQgNA50IDQOhIed9MtKpWo8a2Ym4VAIZc4IcA1ErlSF8WwZPhrMQbZYMZdqZhIRTMKK7jjM74hBOhYWBoMbiGK5CrveHIQXD43BlA7DjCYWCcH6hSl4ZdsCWNgZM5eyYfYhcA8BL/1zFH55cESHoQmgD/c/PsvCtj+cw1bffXtyAlGFvUfGjWBomoMybsyPBvPw0UDeXMKGGQjaifz7Ys541jQPJQzFx0PTCYQpTXNBH3BRF0CPQ2gc6EBoHOhAaBzoQGgc6EBoHOhAaBzoQGgc6EBoHOhAaBzoQGgc6EBoHOhAaBzoQGgc6EBoHOhAaBzoQGgc6EBoHOhAaBzoQGgcMO/LoMu2l+w+bs5pmoVENAQ/+tJseGZNp7mkEWYg6NL9p343Ys5pmgW6YeeZdWn48sqkuaQR7i4jDCGtJlOEngW38nEDYV2Kr9U8ogvwRffa8AOBK2o1m8R38bu0EHpqvkkMNxB0X6dWcwl/hOgW4maarmuXQYnSai7VtqzxyIM7DvHN314y57wTwkMaPNTFZ4/fX+MD+oqCsvt9qleJYsyTMTzM8vo9Ol7BmiqUq1AoYVnc69WA7NNxBeVAaPAwV6wauwKvxHHjbL8/DZtWpswljXADsdVnIFK4Ae7sjcGSbjzalb0dsIQTuSp82F+AgQn3VCSiAA8sTcCG5XFoTXAbwGlB5ejPlGH/8Tx8PFA06okHZeDhFQksSxw6klgOyXUyPFmB907k4INzRfD6nS7xCMD29S2w+Y5pBOIbLw+bc96gMOzc0GoEQwXUOhwbLMKe/ZeNDcPjc50ReG5jO4ZBTTmIc+Nl2PPOhBFSHrNbw/D8VzuxdTAXKGB0qgI/fWMCMllviaCRymfvb4HHXAIhpQ9BUAWoCgNBFbukJwpRtGCVwdJSbKFol6GSjmQI2vFTz/InEYu7o56/+W26dKTCxqeeVQaWhD1KhB8IH5MnJ1lQIFwmo2lWvCFq2F0bp1BIfZ1Qf42w+4omEdxA1B/DimQkMABY3nbhTyCwvO0Kqj7IhuXPk6hcLi2EPwUFy9uu2oN66n3tIqxn1dR7iySCHwiMki95srs+jDfF8rar9lLloFWjtyk6RMafQGD5c+VhK0lrIUhBwPKtVxBYlctTULC8ucIHenZDWh8iKOhNsfwt0e+DguVPsiqepBpRfThkrGCsxoUTCKt58TtdqwgVIuxurMl6pX09dXKZzGQ2riNbPiYsE01uuPQhvMt6vWrIwpDp6yaV0J+v7Zedng6Zr1ON4WN5CuQFKX0IGtcvlvHfNKMQ+npe+jZWu3e9LmRKxmtUQucQMjl+Ocj+4gRWiGLGsxWjLPX+PHmpFpdAeJ+oV33iUhEroeTJ1C8UtKlCFd46ljVOLrlNZ8dK8MlgEUaulGEiV5GuAdzQB0/lYCJfsbk6J/rNmdEi/Ot8Xlk5hi6XjaH8yQK/HKypFg0+nHMZVXj0xQFzzhs0tExD13QiJ07jyxKhEtKnIYufhnxJ8IbQOhEJGeP2Ck66GoGns50UTBF0xtUohzkvE6McWAY66+m1Zabt8p0H2+Brd7WYSxrhBmLjb/wF4ir47lVUgNc3reETjwIGoh22rOIHgrvLoIZoWsItV1YgppeWL3n5TEk5ytCaGaLdDP64Ir+F0LphxegdNMDtQzz0635zzht07j+JnZY5bRHpVyoRRezIDWDPmnrYorfVEx+GNV0HYVHLSemnoSeKnXB45CHozy6CfIV/Sxz1o1qjGVjbfQCWt34ivRz5chIOjfTBmSu3QKGSMJe6Q/d2fvehdnhiVau5pBFuIDb4DEQKzZ5e2wpfWJqEqHWiXhZYQmruaIzhZ2+N4aEWv3LjoTz8/J4dsLrrMCTDWdwQ3q4m8gpV/lCuF77/wT44n11qLm0khIXeueJ5eGLB7yEdnTTmZVKqxGC82A07j/wRy7EE/7r4Q0jXVH6PAnE3PxAufYhaE+NVHakQrF+chO50BNqxhZAqPJTtTIVh+awYLOuJMv0tpSKTsDB9Gp+vSA8DEQ/noSt+CQP3PtP/miqwufc1JWEgouEizEoMwhfnvg6RUIHhz5AxucMPhE/RMS4dc6uEdksdqQjT31I4VFISBDtR9GiLTjD97eqKjygJg515yfMYiHKDN1P4QM9u8DuVuKZfBQG9KZa3JfFnQA6icpCCgg71Wf4NohfjsxvSdhn4E8imQCeGt13mCxWDTgxvm3AKAsOJ6r7enyMR/BbCp9DO9qhWLH+7jBcpRlQOD3UvDZY/S1b9uSG1hahh2SpQgydH+GrlGMVheFsKphToJShHvcz1eDADQStNR0HA8q1XELB86xUULG+eRLBbCFyT2SlxEYbPk+H1Qj4sf0v0+yAgG5a/XUFg1Hudr5tE9SNvlxFIHGhD2DxZCqgcRklY/jYFhTUs7UVUbjckdirVY70dlr+lcjWEz2rHQ+jv58oJhy9L2TL/HkpZjBR68D2Hmf4sibaTtBZibKoMmSxdR0crqxFdQnd8uMj0t5QpdMB4oQtXUEe2nIajY2uZ/tcE8PbAJtxYEXMt+RQrMXi9fwuGM87wZ0sE81wGXYVz956z5pw36Iqp22bH4cl726BFwU2/dM3m/pNT8NdPp4x9IZ8qdMbHoW/OO/DI3LeNUUWZnJpcAa+d2wrnsouN8wlupCOT0Df3b/B47+sQljx6ernUBvtOfxuOXb7DCIYX6OTWDx7pgm+tbjeXNMINxKpf+AsEEcZQxMLi70KcDlRK+poCbxfQViEaLhlhkD10TJ/4UjWGoeQ2rg7onIOKclSwcacgVHy0QFYgnrx3GoG4cxqB0NzYUCB2CQIhrQ+hNUNkbl8e/EBoNaVqD3y4gaidQdNqNgnywO9D3Lr7tDnnDerEzUpcwl71u7Cy/RNzqTxG8t3w5sVNcPzyLfjG3Dp0WPb247Bx3jswNzloLpMHjT8cGH4QjoyugWwpbS5lgB3r3mQ/PD7/L7Co5TwuEG0Kf1AdHB65D94d6sNyeBvvoD7EDzf2wFOfn0ancoXPQHTGxuGldTvhns7/QDo6ZS6VAxWQetTDuTmw7eArcG5qYe0XDFKRLOxdvwPWdB+FeLggfYiqVI3CUG42bD/0Mvxv4nZzaSNhLPULq3fB1xf8GRKRvPSjjCr+xYlCO2w98CqcnFxuDE6JoGteKRBPuwTCpQ/hb5qVGIZlrWekh4GgjRrHw7fuxCjcjq2P3bd+SkWmYH7qIiQUhIGgQ8iOWAbW9hy2ubKmCjw2/w0lYSDob3bEM7BlwZ9ql9B5nEQtFT8QuJ4fRbCiSCqhSkhiC8Dyt0SX0NUGctURCVUgGc4z/e1qjV5REgY7XfFRfL9lpn+9rvPklj95Gi+6bsjM6ctSELB87VIbSRvkR082bzeJ4AbCfoOHF1kNkmrIheVv6YYph5falwC5GEcQdf48iUolrYUgBQHZsLztCgqW91WZrwkC8mKWgSER0jqVHrykYHdkT8FAPnZX1hQEXsrhnNzh7zJwTT/Cn0CglLP87QoCsmF52xUUXuqEZLQS5jo85O4ySIoxbGyejcKHAGj0bVQQsHzdJNpGUjuVQUBviuV/TcL3LIHa+2X7X1MQNeKlHHaJSiWthShXaGxOxVDQNejvlyoRpr8lKkcZX6MSuiZiotjG9LfrwtQ85XXyceZWKJbpfld2GeolyIO8TuVQvhsuZueaa6uhVInC0bG7bK6N02ihAz4cX2m8VhX92Xmwf/ABm2vjRPvsfae2Kr2Ebhjr/I2LfZCrxGzObpMwD/xzGbN+8qk55w0aveuMZeDR3r9D39z3pV4yRidyTk4uglfPboHzU/Nxnv+pqw1zF2BeaggWpPuxHKIq8MdkMQ3HLy8zLqB1O39A5aCrpeYlh2BxywXp3w9RKMfgv5nbhOWwQ+cyXtg8B7bf5/P//p5OIAgapqU7kUmyoUvG6FPvtQmmstSGjeVuiNpf9bYBCFXloL9MdeIHOttJgXh2OoHo/vExc07TLFgtxI51/KvSXfoQWs0oEdxA1A9qaDWHRPBbCNyTaDWZjMkdvcu4mUQPAlx2GXQsrdVMIrpS7uMizEDQl4avnFP77kNHwrRmtKKYBbrd0g1mIMKYiOce7jGOWylYWjNfdIvlI8tb4NZZ7l9yyhyHIGgsYvd7l2DvkTHI5CtQ8dJF1dxw0H/MT+MP6xel4Fdf6YVFne43BnMDQdB+57PxIpwYKcDwlRJGzfyFZsZA3167qjcJvW0xaEtwu4xXcQ2E5uZDHBnNTYUOhMaBDoTGgQ6ExgbA/wEuu/TnoLueOAAAAABJRU5ErkJggg==;" vertex="1" parent="Tq7mYedtV8fznHgPaCb0-85">
          <mxGeometry x="158.5" y="26" width="60" height="50" as="geometry" />
        </mxCell>
        <mxCell id="Tq7mYedtV8fznHgPaCb0-75" value="" style="shape=image;verticalLabelPosition=bottom;labelBackgroundColor=default;verticalAlign=top;aspect=fixed;imageAspect=0;image=data:image/png,iVBORw0KGgoAAAANSUhEUgAAAIQAAABuCAYAAADmm7tDAAAAAXNSR0IArs4c6QAAAARnQU1BAACxjwv8YQUAAAAJcEhZcwAAEnQAABJ0Ad5mH3gAAA0cSURBVHhe7Z1pjBTHGYa/uY+9d7mWcIMPbGPjgBF2jL1xcMBWEmKFiFi2rAjzi0hR8ssRUqQcih2koESKYvmHgyIRK7Ii/0hkKXZsBzuCmCCEE8dxjLkNLHuwxyzLzj2T7+vphu6Zqq7uparFDvX0vjN07/S+NdXvVFdXdw+hKgIajUnYfNZoDHQgNA50IDQOdCA0DnQgNA50IDQOhIed9MtKpWo8a2Ym4VAIZc4IcA1ErlSF8WwZPhrMQbZYMZdqZhIRTMKK7jjM74hBOhYWBoMbiGK5CrveHIQXD43BlA7DjCYWCcH6hSl4ZdsCWNgZM5eyYfYhcA8BL/1zFH55cESHoQmgD/c/PsvCtj+cw1bffXtyAlGFvUfGjWBomoMybsyPBvPw0UDeXMKGGQjaifz7Ys541jQPJQzFx0PTCYQpTXNBH3BRF0CPQ2gc6EBoHOhAaBzoQGgc6EBoHOhAaBzoQGgc6EBoHOhAaBzoQGgc6EBoHOhAaBzoQGgc6EBoHOhAaBzoQGgc6EBoHOhAaBzoQGgcMO/LoMu2l+w+bs5pmoVENAQ/+tJseGZNp7mkEWYg6NL9p343Ys5pmgW6YeeZdWn48sqkuaQR7i4jDCGtJlOEngW38nEDYV2Kr9U8ogvwRffa8AOBK2o1m8R38bu0EHpqvkkMNxB0X6dWcwl/hOgW4maarmuXQYnSai7VtqzxyIM7DvHN314y57wTwkMaPNTFZ4/fX+MD+oqCsvt9qleJYsyTMTzM8vo9Ol7BmiqUq1AoYVnc69WA7NNxBeVAaPAwV6wauwKvxHHjbL8/DZtWpswljXADsdVnIFK4Ae7sjcGSbjzalb0dsIQTuSp82F+AgQn3VCSiAA8sTcCG5XFoTXAbwGlB5ejPlGH/8Tx8PFA06okHZeDhFQksSxw6klgOyXUyPFmB907k4INzRfD6nS7xCMD29S2w+Y5pBOIbLw+bc96gMOzc0GoEQwXUOhwbLMKe/ZeNDcPjc50ReG5jO4ZBTTmIc+Nl2PPOhBFSHrNbw/D8VzuxdTAXKGB0qgI/fWMCMllviaCRymfvb4HHXAIhpQ9BUAWoCgNBFbukJwpRtGCVwdJSbKFol6GSjmQI2vFTz/InEYu7o56/+W26dKTCxqeeVQaWhD1KhB8IH5MnJ1lQIFwmo2lWvCFq2F0bp1BIfZ1Qf42w+4omEdxA1B/DimQkMABY3nbhTyCwvO0Kqj7IhuXPk6hcLi2EPwUFy9uu2oN66n3tIqxn1dR7iySCHwiMki95srs+jDfF8rar9lLloFWjtyk6RMafQGD5c+VhK0lrIUhBwPKtVxBYlctTULC8ucIHenZDWh8iKOhNsfwt0e+DguVPsiqepBpRfThkrGCsxoUTCKt58TtdqwgVIuxurMl6pX09dXKZzGQ2riNbPiYsE01uuPQhvMt6vWrIwpDp6yaV0J+v7Zedng6Zr1ON4WN5CuQFKX0IGtcvlvHfNKMQ+npe+jZWu3e9LmRKxmtUQucQMjl+Ocj+4gRWiGLGsxWjLPX+PHmpFpdAeJ+oV33iUhEroeTJ1C8UtKlCFd46ljVOLrlNZ8dK8MlgEUaulGEiV5GuAdzQB0/lYCJfsbk6J/rNmdEi/Ot8Xlk5hi6XjaH8yQK/HKypFg0+nHMZVXj0xQFzzhs0tExD13QiJ07jyxKhEtKnIYufhnxJ8IbQOhEJGeP2Ck66GoGns50UTBF0xtUohzkvE6McWAY66+m1Zabt8p0H2+Brd7WYSxrhBmLjb/wF4ir47lVUgNc3reETjwIGoh22rOIHgrvLoIZoWsItV1YgppeWL3n5TEk5ytCaGaLdDP64Ir+F0LphxegdNMDtQzz0635zzht07j+JnZY5bRHpVyoRRezIDWDPmnrYorfVEx+GNV0HYVHLSemnoSeKnXB45CHozy6CfIV/Sxz1o1qjGVjbfQCWt34ivRz5chIOjfTBmSu3QKGSMJe6Q/d2fvehdnhiVau5pBFuIDb4DEQKzZ5e2wpfWJqEqHWiXhZYQmruaIzhZ2+N4aEWv3LjoTz8/J4dsLrrMCTDWdwQ3q4m8gpV/lCuF77/wT44n11qLm0khIXeueJ5eGLB7yEdnTTmZVKqxGC82A07j/wRy7EE/7r4Q0jXVH6PAnE3PxAufYhaE+NVHakQrF+chO50BNqxhZAqPJTtTIVh+awYLOuJMv0tpSKTsDB9Gp+vSA8DEQ/noSt+CQP3PtP/miqwufc1JWEgouEizEoMwhfnvg6RUIHhz5AxucMPhE/RMS4dc6uEdksdqQjT31I4VFISBDtR9GiLTjD97eqKjygJg515yfMYiHKDN1P4QM9u8DuVuKZfBQG9KZa3JfFnQA6icpCCgg71Wf4NohfjsxvSdhn4E8imQCeGt13mCxWDTgxvm3AKAsOJ6r7enyMR/BbCp9DO9qhWLH+7jBcpRlQOD3UvDZY/S1b9uSG1hahh2SpQgydH+GrlGMVheFsKphToJShHvcz1eDADQStNR0HA8q1XELB86xUULG+eRLBbCFyT2SlxEYbPk+H1Qj4sf0v0+yAgG5a/XUFg1Hudr5tE9SNvlxFIHGhD2DxZCqgcRklY/jYFhTUs7UVUbjckdirVY70dlr+lcjWEz2rHQ+jv58oJhy9L2TL/HkpZjBR68D2Hmf4sibaTtBZibKoMmSxdR0crqxFdQnd8uMj0t5QpdMB4oQtXUEe2nIajY2uZ/tcE8PbAJtxYEXMt+RQrMXi9fwuGM87wZ0sE81wGXYVz956z5pw36Iqp22bH4cl726BFwU2/dM3m/pNT8NdPp4x9IZ8qdMbHoW/OO/DI3LeNUUWZnJpcAa+d2wrnsouN8wlupCOT0Df3b/B47+sQljx6ernUBvtOfxuOXb7DCIYX6OTWDx7pgm+tbjeXNMINxKpf+AsEEcZQxMLi70KcDlRK+poCbxfQViEaLhlhkD10TJ/4UjWGoeQ2rg7onIOKclSwcacgVHy0QFYgnrx3GoG4cxqB0NzYUCB2CQIhrQ+hNUNkbl8e/EBoNaVqD3y4gaidQdNqNgnywO9D3Lr7tDnnDerEzUpcwl71u7Cy/RNzqTxG8t3w5sVNcPzyLfjG3Dp0WPb247Bx3jswNzloLpMHjT8cGH4QjoyugWwpbS5lgB3r3mQ/PD7/L7Co5TwuEG0Kf1AdHB65D94d6sNyeBvvoD7EDzf2wFOfn0ancoXPQHTGxuGldTvhns7/QDo6ZS6VAxWQetTDuTmw7eArcG5qYe0XDFKRLOxdvwPWdB+FeLggfYiqVI3CUG42bD/0Mvxv4nZzaSNhLPULq3fB1xf8GRKRvPSjjCr+xYlCO2w98CqcnFxuDE6JoGteKRBPuwTCpQ/hb5qVGIZlrWekh4GgjRrHw7fuxCjcjq2P3bd+SkWmYH7qIiQUhIGgQ8iOWAbW9hy2ubKmCjw2/w0lYSDob3bEM7BlwZ9ql9B5nEQtFT8QuJ4fRbCiSCqhSkhiC8Dyt0SX0NUGctURCVUgGc4z/e1qjV5REgY7XfFRfL9lpn+9rvPklj95Gi+6bsjM6ctSELB87VIbSRvkR082bzeJ4AbCfoOHF1kNkmrIheVv6YYph5falwC5GEcQdf48iUolrYUgBQHZsLztCgqW91WZrwkC8mKWgSER0jqVHrykYHdkT8FAPnZX1hQEXsrhnNzh7zJwTT/Cn0CglLP87QoCsmF52xUUXuqEZLQS5jo85O4ySIoxbGyejcKHAGj0bVQQsHzdJNpGUjuVQUBviuV/TcL3LIHa+2X7X1MQNeKlHHaJSiWthShXaGxOxVDQNejvlyoRpr8lKkcZX6MSuiZiotjG9LfrwtQ85XXyceZWKJbpfld2GeolyIO8TuVQvhsuZueaa6uhVInC0bG7bK6N02ihAz4cX2m8VhX92Xmwf/ABm2vjRPvsfae2Kr2Ebhjr/I2LfZCrxGzObpMwD/xzGbN+8qk55w0aveuMZeDR3r9D39z3pV4yRidyTk4uglfPboHzU/Nxnv+pqw1zF2BeaggWpPuxHKIq8MdkMQ3HLy8zLqB1O39A5aCrpeYlh2BxywXp3w9RKMfgv5nbhOWwQ+cyXtg8B7bf5/P//p5OIAgapqU7kUmyoUvG6FPvtQmmstSGjeVuiNpf9bYBCFXloL9MdeIHOttJgXh2OoHo/vExc07TLFgtxI51/KvSXfoQWs0oEdxA1A9qaDWHRPBbCNyTaDWZjMkdvcu4mUQPAlx2GXQsrdVMIrpS7uMizEDQl4avnFP77kNHwrRmtKKYBbrd0g1mIMKYiOce7jGOWylYWjNfdIvlI8tb4NZZ7l9yyhyHIGgsYvd7l2DvkTHI5CtQ8dJF1dxw0H/MT+MP6xel4Fdf6YVFne43BnMDQdB+57PxIpwYKcDwlRJGzfyFZsZA3167qjcJvW0xaEtwu4xXcQ2E5uZDHBnNTYUOhMaBDoTGgQ6ExgbA/wEuu/TnoLueOAAAAABJRU5ErkJggg==;" vertex="1" parent="Tq7mYedtV8fznHgPaCb0-85">
          <mxGeometry x="228.5" y="26" width="60" height="50" as="geometry" />
        </mxCell>
        <mxCell id="Tq7mYedtV8fznHgPaCb0-76" value="" style="shape=image;verticalLabelPosition=bottom;labelBackgroundColor=default;verticalAlign=top;aspect=fixed;imageAspect=0;image=data:image/png,iVBORw0KGgoAAAANSUhEUgAAAIQAAABuCAYAAADmm7tDAAAAAXNSR0IArs4c6QAAAARnQU1BAACxjwv8YQUAAAAJcEhZcwAAEnQAABJ0Ad5mH3gAAA0cSURBVHhe7Z1pjBTHGYa/uY+9d7mWcIMPbGPjgBF2jL1xcMBWEmKFiFi2rAjzi0hR8ssRUqQcih2koESKYvmHgyIRK7Ii/0hkKXZsBzuCmCCEE8dxjLkNLHuwxyzLzj2T7+vphu6Zqq7uparFDvX0vjN07/S+NdXvVFdXdw+hKgIajUnYfNZoDHQgNA50IDQOdCA0DnQgNA50IDQOhIed9MtKpWo8a2Ym4VAIZc4IcA1ErlSF8WwZPhrMQbZYMZdqZhIRTMKK7jjM74hBOhYWBoMbiGK5CrveHIQXD43BlA7DjCYWCcH6hSl4ZdsCWNgZM5eyYfYhcA8BL/1zFH55cESHoQmgD/c/PsvCtj+cw1bffXtyAlGFvUfGjWBomoMybsyPBvPw0UDeXMKGGQjaifz7Ys541jQPJQzFx0PTCYQpTXNBH3BRF0CPQ2gc6EBoHOhAaBzoQGgc6EBoHOhAaBzoQGgc6EBoHOhAaBzoQGgc6EBoHOhAaBzoQGgc6EBoHOhAaBzoQGgc6EBoHOhAaBzoQGgcMO/LoMu2l+w+bs5pmoVENAQ/+tJseGZNp7mkEWYg6NL9p343Ys5pmgW6YeeZdWn48sqkuaQR7i4jDCGtJlOEngW38nEDYV2Kr9U8ogvwRffa8AOBK2o1m8R38bu0EHpqvkkMNxB0X6dWcwl/hOgW4maarmuXQYnSai7VtqzxyIM7DvHN314y57wTwkMaPNTFZ4/fX+MD+oqCsvt9qleJYsyTMTzM8vo9Ol7BmiqUq1AoYVnc69WA7NNxBeVAaPAwV6wauwKvxHHjbL8/DZtWpswljXADsdVnIFK4Ae7sjcGSbjzalb0dsIQTuSp82F+AgQn3VCSiAA8sTcCG5XFoTXAbwGlB5ejPlGH/8Tx8PFA06okHZeDhFQksSxw6klgOyXUyPFmB907k4INzRfD6nS7xCMD29S2w+Y5pBOIbLw+bc96gMOzc0GoEQwXUOhwbLMKe/ZeNDcPjc50ReG5jO4ZBTTmIc+Nl2PPOhBFSHrNbw/D8VzuxdTAXKGB0qgI/fWMCMllviaCRymfvb4HHXAIhpQ9BUAWoCgNBFbukJwpRtGCVwdJSbKFol6GSjmQI2vFTz/InEYu7o56/+W26dKTCxqeeVQaWhD1KhB8IH5MnJ1lQIFwmo2lWvCFq2F0bp1BIfZ1Qf42w+4omEdxA1B/DimQkMABY3nbhTyCwvO0Kqj7IhuXPk6hcLi2EPwUFy9uu2oN66n3tIqxn1dR7iySCHwiMki95srs+jDfF8rar9lLloFWjtyk6RMafQGD5c+VhK0lrIUhBwPKtVxBYlctTULC8ucIHenZDWh8iKOhNsfwt0e+DguVPsiqepBpRfThkrGCsxoUTCKt58TtdqwgVIuxurMl6pX09dXKZzGQ2riNbPiYsE01uuPQhvMt6vWrIwpDp6yaV0J+v7Zedng6Zr1ON4WN5CuQFKX0IGtcvlvHfNKMQ+npe+jZWu3e9LmRKxmtUQucQMjl+Ocj+4gRWiGLGsxWjLPX+PHmpFpdAeJ+oV33iUhEroeTJ1C8UtKlCFd46ljVOLrlNZ8dK8MlgEUaulGEiV5GuAdzQB0/lYCJfsbk6J/rNmdEi/Ot8Xlk5hi6XjaH8yQK/HKypFg0+nHMZVXj0xQFzzhs0tExD13QiJ07jyxKhEtKnIYufhnxJ8IbQOhEJGeP2Ck66GoGns50UTBF0xtUohzkvE6McWAY66+m1Zabt8p0H2+Brd7WYSxrhBmLjb/wF4ir47lVUgNc3reETjwIGoh22rOIHgrvLoIZoWsItV1YgppeWL3n5TEk5ytCaGaLdDP64Ir+F0LphxegdNMDtQzz0635zzht07j+JnZY5bRHpVyoRRezIDWDPmnrYorfVEx+GNV0HYVHLSemnoSeKnXB45CHozy6CfIV/Sxz1o1qjGVjbfQCWt34ivRz5chIOjfTBmSu3QKGSMJe6Q/d2fvehdnhiVau5pBFuIDb4DEQKzZ5e2wpfWJqEqHWiXhZYQmruaIzhZ2+N4aEWv3LjoTz8/J4dsLrrMCTDWdwQ3q4m8gpV/lCuF77/wT44n11qLm0khIXeueJ5eGLB7yEdnTTmZVKqxGC82A07j/wRy7EE/7r4Q0jXVH6PAnE3PxAufYhaE+NVHakQrF+chO50BNqxhZAqPJTtTIVh+awYLOuJMv0tpSKTsDB9Gp+vSA8DEQ/noSt+CQP3PtP/miqwufc1JWEgouEizEoMwhfnvg6RUIHhz5AxucMPhE/RMS4dc6uEdksdqQjT31I4VFISBDtR9GiLTjD97eqKjygJg515yfMYiHKDN1P4QM9u8DuVuKZfBQG9KZa3JfFnQA6icpCCgg71Wf4NohfjsxvSdhn4E8imQCeGt13mCxWDTgxvm3AKAsOJ6r7enyMR/BbCp9DO9qhWLH+7jBcpRlQOD3UvDZY/S1b9uSG1hahh2SpQgydH+GrlGMVheFsKphToJShHvcz1eDADQStNR0HA8q1XELB86xUULG+eRLBbCFyT2SlxEYbPk+H1Qj4sf0v0+yAgG5a/XUFg1Hudr5tE9SNvlxFIHGhD2DxZCqgcRklY/jYFhTUs7UVUbjckdirVY70dlr+lcjWEz2rHQ+jv58oJhy9L2TL/HkpZjBR68D2Hmf4sibaTtBZibKoMmSxdR0crqxFdQnd8uMj0t5QpdMB4oQtXUEe2nIajY2uZ/tcE8PbAJtxYEXMt+RQrMXi9fwuGM87wZ0sE81wGXYVz956z5pw36Iqp22bH4cl726BFwU2/dM3m/pNT8NdPp4x9IZ8qdMbHoW/OO/DI3LeNUUWZnJpcAa+d2wrnsouN8wlupCOT0Df3b/B47+sQljx6ernUBvtOfxuOXb7DCIYX6OTWDx7pgm+tbjeXNMINxKpf+AsEEcZQxMLi70KcDlRK+poCbxfQViEaLhlhkD10TJ/4UjWGoeQ2rg7onIOKclSwcacgVHy0QFYgnrx3GoG4cxqB0NzYUCB2CQIhrQ+hNUNkbl8e/EBoNaVqD3y4gaidQdNqNgnywO9D3Lr7tDnnDerEzUpcwl71u7Cy/RNzqTxG8t3w5sVNcPzyLfjG3Dp0WPb247Bx3jswNzloLpMHjT8cGH4QjoyugWwpbS5lgB3r3mQ/PD7/L7Co5TwuEG0Kf1AdHB65D94d6sNyeBvvoD7EDzf2wFOfn0ancoXPQHTGxuGldTvhns7/QDo6ZS6VAxWQetTDuTmw7eArcG5qYe0XDFKRLOxdvwPWdB+FeLggfYiqVI3CUG42bD/0Mvxv4nZzaSNhLPULq3fB1xf8GRKRvPSjjCr+xYlCO2w98CqcnFxuDE6JoGteKRBPuwTCpQ/hb5qVGIZlrWekh4GgjRrHw7fuxCjcjq2P3bd+SkWmYH7qIiQUhIGgQ8iOWAbW9hy2ubKmCjw2/w0lYSDob3bEM7BlwZ9ql9B5nEQtFT8QuJ4fRbCiSCqhSkhiC8Dyt0SX0NUGctURCVUgGc4z/e1qjV5REgY7XfFRfL9lpn+9rvPklj95Gi+6bsjM6ctSELB87VIbSRvkR082bzeJ4AbCfoOHF1kNkmrIheVv6YYph5falwC5GEcQdf48iUolrYUgBQHZsLztCgqW91WZrwkC8mKWgSER0jqVHrykYHdkT8FAPnZX1hQEXsrhnNzh7zJwTT/Cn0CglLP87QoCsmF52xUUXuqEZLQS5jo85O4ySIoxbGyejcKHAGj0bVQQsHzdJNpGUjuVQUBviuV/TcL3LIHa+2X7X1MQNeKlHHaJSiWthShXaGxOxVDQNejvlyoRpr8lKkcZX6MSuiZiotjG9LfrwtQ85XXyceZWKJbpfld2GeolyIO8TuVQvhsuZueaa6uhVInC0bG7bK6N02ihAz4cX2m8VhX92Xmwf/ABm2vjRPvsfae2Kr2Ebhjr/I2LfZCrxGzObpMwD/xzGbN+8qk55w0aveuMZeDR3r9D39z3pV4yRidyTk4uglfPboHzU/Nxnv+pqw1zF2BeaggWpPuxHKIq8MdkMQ3HLy8zLqB1O39A5aCrpeYlh2BxywXp3w9RKMfgv5nbhOWwQ+cyXtg8B7bf5/P//p5OIAgapqU7kUmyoUvG6FPvtQmmstSGjeVuiNpf9bYBCFXloL9MdeIHOttJgXh2OoHo/vExc07TLFgtxI51/KvSXfoQWs0oEdxA1A9qaDWHRPBbCNyTaDWZjMkdvcu4mUQPAlx2GXQsrdVMIrpS7uMizEDQl4avnFP77kNHwrRmtKKYBbrd0g1mIMKYiOce7jGOWylYWjNfdIvlI8tb4NZZ7l9yyhyHIGgsYvd7l2DvkTHI5CtQ8dJF1dxw0H/MT+MP6xel4Fdf6YVFne43BnMDQdB+57PxIpwYKcDwlRJGzfyFZsZA3167qjcJvW0xaEtwu4xXcQ2E5uZDHBnNTYUOhMaBDoTGgQ6ExgbA/wEuu/TnoLueOAAAAABJRU5ErkJggg==;" vertex="1" parent="Tq7mYedtV8fznHgPaCb0-85">
          <mxGeometry x="298.5" y="26" width="60" height="50" as="geometry" />
        </mxCell>
        <mxCell id="Tq7mYedtV8fznHgPaCb0-77" value="Films_csv" style="text;html=1;align=center;verticalAlign=middle;whiteSpace=wrap;rounded=0;" vertex="1" parent="Tq7mYedtV8fznHgPaCb0-85">
          <mxGeometry x="18.5" y="66" width="60" height="30" as="geometry" />
        </mxCell>
        <mxCell id="Tq7mYedtV8fznHgPaCb0-78" value="inventory_csv" style="text;html=1;align=center;verticalAlign=middle;whiteSpace=wrap;rounded=0;" vertex="1" parent="Tq7mYedtV8fznHgPaCb0-85">
          <mxGeometry x="88.5" y="66" width="60" height="30" as="geometry" />
        </mxCell>
        <mxCell id="Tq7mYedtV8fznHgPaCb0-79" value="rental_csv" style="text;html=1;align=center;verticalAlign=middle;whiteSpace=wrap;rounded=0;" vertex="1" parent="Tq7mYedtV8fznHgPaCb0-85">
          <mxGeometry x="158.5" y="66" width="60" height="30" as="geometry" />
        </mxCell>
        <mxCell id="Tq7mYedtV8fznHgPaCb0-80" value="customer_csv" style="text;html=1;align=center;verticalAlign=middle;whiteSpace=wrap;rounded=0;" vertex="1" parent="Tq7mYedtV8fznHgPaCb0-85">
          <mxGeometry x="228.5" y="66" width="60" height="30" as="geometry" />
        </mxCell>
        <mxCell id="Tq7mYedtV8fznHgPaCb0-81" value="store_csv" style="text;html=1;align=center;verticalAlign=middle;whiteSpace=wrap;rounded=0;" vertex="1" parent="Tq7mYedtV8fznHgPaCb0-85">
          <mxGeometry x="298.5" y="66" width="60" height="30" as="geometry" />
        </mxCell>
        <mxCell id="Tq7mYedtV8fznHgPaCb0-84" value="&lt;b&gt;Base de datos:&lt;/b&gt; bdprueba" style="text;html=1;align=center;verticalAlign=middle;whiteSpace=wrap;rounded=0;" vertex="1" parent="Tq7mYedtV8fznHgPaCb0-85">
          <mxGeometry x="96" width="160" height="30" as="geometry" />
        </mxCell>
        <mxCell id="Tq7mYedtV8fznHgPaCb0-86" value="" style="group" vertex="1" connectable="0" parent="1">
          <mxGeometry x="20" y="370" width="360" height="100" as="geometry" />
        </mxCell>
        <mxCell id="Tq7mYedtV8fznHgPaCb0-16" value="" style="rounded=0;whiteSpace=wrap;html=1;" vertex="1" parent="Tq7mYedtV8fznHgPaCb0-86">
          <mxGeometry width="360" height="100" as="geometry" />
        </mxCell>
        <mxCell id="Tq7mYedtV8fznHgPaCb0-17" value="" style="shape=image;html=1;verticalAlign=top;verticalLabelPosition=bottom;labelBackgroundColor=#ffffff;imageAspect=0;aspect=fixed;image=https://cdn3.iconfinder.com/data/icons/document-icons-2/30/647702-excel-128.png" vertex="1" parent="Tq7mYedtV8fznHgPaCb0-86">
          <mxGeometry x="10" y="10" width="60" height="60" as="geometry" />
        </mxCell>
        <mxCell id="Tq7mYedtV8fznHgPaCb0-18" value="" style="shape=image;html=1;verticalAlign=top;verticalLabelPosition=bottom;labelBackgroundColor=#ffffff;imageAspect=0;aspect=fixed;image=https://cdn3.iconfinder.com/data/icons/document-icons-2/30/647702-excel-128.png" vertex="1" parent="Tq7mYedtV8fznHgPaCb0-86">
          <mxGeometry x="80" y="10" width="60" height="60" as="geometry" />
        </mxCell>
        <mxCell id="Tq7mYedtV8fznHgPaCb0-19" value="" style="shape=image;html=1;verticalAlign=top;verticalLabelPosition=bottom;labelBackgroundColor=#ffffff;imageAspect=0;aspect=fixed;image=https://cdn3.iconfinder.com/data/icons/document-icons-2/30/647702-excel-128.png" vertex="1" parent="Tq7mYedtV8fznHgPaCb0-86">
          <mxGeometry x="150" y="10" width="60" height="60" as="geometry" />
        </mxCell>
        <mxCell id="Tq7mYedtV8fznHgPaCb0-20" value="" style="shape=image;html=1;verticalAlign=top;verticalLabelPosition=bottom;labelBackgroundColor=#ffffff;imageAspect=0;aspect=fixed;image=https://cdn3.iconfinder.com/data/icons/document-icons-2/30/647702-excel-128.png" vertex="1" parent="Tq7mYedtV8fznHgPaCb0-86">
          <mxGeometry x="220" y="10" width="60" height="60" as="geometry" />
        </mxCell>
        <mxCell id="Tq7mYedtV8fznHgPaCb0-21" value="" style="shape=image;html=1;verticalAlign=top;verticalLabelPosition=bottom;labelBackgroundColor=#ffffff;imageAspect=0;aspect=fixed;image=https://cdn3.iconfinder.com/data/icons/document-icons-2/30/647702-excel-128.png" vertex="1" parent="Tq7mYedtV8fznHgPaCb0-86">
          <mxGeometry x="290" y="10" width="60" height="60" as="geometry" />
        </mxCell>
        <mxCell id="Tq7mYedtV8fznHgPaCb0-22" value="Films.csv" style="text;html=1;align=center;verticalAlign=middle;whiteSpace=wrap;rounded=0;" vertex="1" parent="Tq7mYedtV8fznHgPaCb0-86">
          <mxGeometry x="10" y="70" width="60" height="30" as="geometry" />
        </mxCell>
        <mxCell id="Tq7mYedtV8fznHgPaCb0-23" value="inventory.csv" style="text;html=1;align=center;verticalAlign=middle;whiteSpace=wrap;rounded=0;" vertex="1" parent="Tq7mYedtV8fznHgPaCb0-86">
          <mxGeometry x="80" y="70" width="60" height="30" as="geometry" />
        </mxCell>
        <mxCell id="Tq7mYedtV8fznHgPaCb0-24" value="rental.csv" style="text;html=1;align=center;verticalAlign=middle;whiteSpace=wrap;rounded=0;" vertex="1" parent="Tq7mYedtV8fznHgPaCb0-86">
          <mxGeometry x="150" y="70" width="60" height="30" as="geometry" />
        </mxCell>
        <mxCell id="Tq7mYedtV8fznHgPaCb0-25" value="customer.csv" style="text;html=1;align=center;verticalAlign=middle;whiteSpace=wrap;rounded=0;" vertex="1" parent="Tq7mYedtV8fznHgPaCb0-86">
          <mxGeometry x="220" y="70" width="60" height="30" as="geometry" />
        </mxCell>
        <mxCell id="Tq7mYedtV8fznHgPaCb0-26" value="store.csv" style="text;html=1;align=center;verticalAlign=middle;whiteSpace=wrap;rounded=0;" vertex="1" parent="Tq7mYedtV8fznHgPaCb0-86">
          <mxGeometry x="290" y="70" width="60" height="30" as="geometry" />
        </mxCell>
        <mxCell id="Tq7mYedtV8fznHgPaCb0-88" value="2. Alimentar" style="text;html=1;align=center;verticalAlign=middle;whiteSpace=wrap;rounded=0;" vertex="1" parent="1">
          <mxGeometry x="377" y="240" width="74" height="30" as="geometry" />
        </mxCell>
        <mxCell id="Tq7mYedtV8fznHgPaCb0-94" style="edgeStyle=orthogonalEdgeStyle;rounded=0;orthogonalLoop=1;jettySize=auto;html=1;" edge="1" parent="1" source="Tq7mYedtV8fznHgPaCb0-91">
          <mxGeometry relative="1" as="geometry">
            <mxPoint x="250" y="91" as="targetPoint" />
          </mxGeometry>
        </mxCell>
        <mxCell id="Tq7mYedtV8fznHgPaCb0-96" style="edgeStyle=orthogonalEdgeStyle;rounded=0;orthogonalLoop=1;jettySize=auto;html=1;" edge="1" parent="1" source="Tq7mYedtV8fznHgPaCb0-91">
          <mxGeometry relative="1" as="geometry">
            <mxPoint x="660" y="90" as="targetPoint" />
          </mxGeometry>
        </mxCell>
        <mxCell id="Tq7mYedtV8fznHgPaCb0-91" value="" style="sketch=0;points=[[0,0,0],[0.25,0,0],[0.5,0,0],[0.75,0,0],[1,0,0],[0,1,0],[0.25,1,0],[0.5,1,0],[0.75,1,0],[1,1,0],[0,0.25,0],[0,0.5,0],[0,0.75,0],[1,0.25,0],[1,0.5,0],[1,0.75,0]];outlineConnect=0;fontColor=#232F3E;fillColor=#8C4FFF;strokeColor=#ffffff;dashed=0;verticalLabelPosition=bottom;verticalAlign=top;align=center;html=1;fontSize=12;fontStyle=0;aspect=fixed;shape=mxgraph.aws4.resourceIcon;resIcon=mxgraph.aws4.glue;" vertex="1" parent="1">
          <mxGeometry x="470" y="52" width="78" height="78" as="geometry" />
        </mxCell>
        <mxCell id="Tq7mYedtV8fznHgPaCb0-92" value="AWS Glue" style="text;html=1;align=center;verticalAlign=middle;whiteSpace=wrap;rounded=0;" vertex="1" parent="1">
          <mxGeometry x="450.25" y="22" width="117.5" height="30" as="geometry" />
        </mxCell>
        <mxCell id="Tq7mYedtV8fznHgPaCb0-93" value="" style="group" vertex="1" connectable="0" parent="1">
          <mxGeometry x="150" y="20" width="117.5" height="104" as="geometry" />
        </mxCell>
        <mxCell id="Tq7mYedtV8fznHgPaCb0-67" value="" style="sketch=0;outlineConnect=0;fontColor=#232F3E;gradientColor=none;fillColor=#8C4FFF;strokeColor=none;dashed=0;verticalLabelPosition=bottom;verticalAlign=top;align=center;html=1;fontSize=12;fontStyle=0;aspect=fixed;pointerEvents=1;shape=mxgraph.aws4.glue_data_catalog;" vertex="1" parent="Tq7mYedtV8fznHgPaCb0-93">
          <mxGeometry x="20" y="26" width="72" height="78" as="geometry" />
        </mxCell>
        <mxCell id="Tq7mYedtV8fznHgPaCb0-68" value="Glue Data Catalog" style="text;html=1;align=center;verticalAlign=middle;whiteSpace=wrap;rounded=0;" vertex="1" parent="Tq7mYedtV8fznHgPaCb0-93">
          <mxGeometry width="117.5" height="30" as="geometry" />
        </mxCell>
        <mxCell id="Tq7mYedtV8fznHgPaCb0-95" value="3. Extraer" style="text;html=1;align=center;verticalAlign=middle;whiteSpace=wrap;rounded=0;" vertex="1" parent="1">
          <mxGeometry x="324.5" y="57" width="74" height="30" as="geometry" />
        </mxCell>
        <mxCell id="Tq7mYedtV8fznHgPaCb0-97" value="4. Transformar" style="text;html=1;align=center;verticalAlign=middle;whiteSpace=wrap;rounded=0;" vertex="1" parent="1">
          <mxGeometry x="567.75" y="57" width="82.25" height="30" as="geometry" />
        </mxCell>
        <mxCell id="Tq7mYedtV8fznHgPaCb0-98" value="DataFrames" style="rounded=1;whiteSpace=wrap;html=1;" vertex="1" parent="1">
          <mxGeometry x="670" y="61" width="120" height="60" as="geometry" />
        </mxCell>
      </root>
    </mxGraphModel>
  </diagram>
</mxfile>
